<svg width="256" height="256" viewBox="0 0 256 256" fill="none" xmlns="http://www.w3.org/2000/svg">
  <defs>
    <linearGradient id="bg" x1="32" y1="24" x2="220" y2="232" gradientUnits="userSpaceOnUse">
      <stop stop-color="#081120"/>
      <stop offset="0.58" stop-color="#102345"/>
      <stop offset="1" stop-color="#17386B"/>
    </linearGradient>
    <linearGradient id="stroke" x1="62" y1="44" x2="196" y2="206" gradientUnits="userSpaceOnUse">
      <stop stop-color="#EAF3FF"/>
      <stop offset="0.48" stop-color="#93C5FD"/>
      <stop offset="1" stop-color="#2563EB"/>
    </linearGradient>
    <linearGradient id="accent" x1="118" y1="72" x2="178" y2="188" gradientUnits="userSpaceOnUse">
      <stop stop-color="#EAF3FF"/>
      <stop offset="1" stop-color="#60A5FA"/>
    </linearGradient>
  </defs>

  <rect x="18" y="18" width="220" height="220" rx="56" fill="url(#bg)"/>
  <rect x="18.75" y="18.75" width="218.5" height="218.5" rx="55.25" stroke="rgba(255,255,255,0.12)" stroke-width="1.5"/>
  <circle cx="84" cy="74" r="56" fill="#60A5FA" fill-opacity="0.16"/>
  <circle cx="188" cy="194" r="74" fill="#A78BFA" fill-opacity="0.1"/>

  <path
    d="M88 182L128 74L168 182"
    stroke="url(#stroke)"
    stroke-width="18"
    stroke-linecap="round"
    stroke-linejoin="round"
  />
  <path
    d="M102 144H154"
    stroke="url(#stroke)"
    stroke-width="16"
    stroke-linecap="round"
  />
  <path
    d="M182 84C167 78 151 83 141 95C130 108 128 127 135 143C142 159 157 170 174 170C185 170 194 166 202 159"
    stroke="url(#accent)"
    stroke-width="16"
    stroke-linecap="round"
    stroke-linejoin="round"
  />
</svg>
